<svg xmlns="http://www.w3.org/2000/svg" style="display:none">
<defs>

<!-- A — triangular letterform built from circles and lines -->
<symbol id="cc-A" viewBox="0 0 48 48">
  <!-- Three corner dots as crop circles -->
  <circle cx="24" cy="8" r="2" fill="rgba(32,224,128,.7)"/>
  <circle cx="24" cy="8" r="5" fill="none" stroke="#20e080" stroke-width=".7"/>
  <circle cx="8" cy="40" r="2" fill="rgba(32,224,128,.7)"/>
  <circle cx="8" cy="40" r="5" fill="none" stroke="#20e080" stroke-width=".7"/>
  <circle cx="40" cy="40" r="2" fill="rgba(32,224,128,.7)"/>
  <circle cx="40" cy="40" r="5" fill="none" stroke="#20e080" stroke-width=".7"/>
  <!-- Outer ring through corners -->
  <circle cx="24" cy="24" r="19" fill="none" stroke="#20e080" stroke-width=".4"/>
  <!-- Crossbar ring + dots -->
  <circle cx="24" cy="26" r="2.5" fill="rgba(32,224,128,.5)"/>
  <circle cx="24" cy="26" r="6" fill="none" stroke="#20e080" stroke-width=".5"/>
  <!-- Side bars as ring pairs -->
  <path d="M6,40 L14,16" stroke="#20e080" stroke-width=".8" fill="none"/>
  <path d="M42,40 L34,16" stroke="#20e080" stroke-width=".8" fill="none"/>
  <!-- Crossbar -->
  <path d="M16,26 L32,26" stroke="#20e080" stroke-width=".8" fill="none"/>
  <!-- Inner triangle ring -->
  <circle cx="24" cy="22" r="9" fill="rgba(32,224,128,.06)" stroke="#20e080" stroke-width=".5"/>
</symbol>

<!-- B — stem with two right-side lobes -->
<symbol id="cc-B" viewBox="0 0 48 48">
  <circle cx="14" cy="24" r="18" fill="rgba(32,224,128,.04)" stroke="#20e080" stroke-width=".6"/>
  <circle cx="14" cy="24" r="10" fill="none" stroke="#20e080" stroke-width=".4"/>
  <circle cx="14" cy="24" r="3" fill="rgba(32,224,128,.4)"/>
  <!-- Top lobe -->
  <circle cx="30" cy="15" r="9" fill="rgba(32,224,128,.08)" stroke="#20e080" stroke-width=".7"/>
  <circle cx="30" cy="15" r="4" fill="rgba(32,224,128,.2)" stroke="#20e080" stroke-width=".5"/>
  <circle cx="30" cy="15" r="1.5" fill="rgba(32,224,128,.6)"/>
  <!-- Bottom lobe -->
  <circle cx="32" cy="34" r="10" fill="rgba(32,224,128,.08)" stroke="#20e080" stroke-width=".7"/>
  <circle cx="32" cy="34" r="4" fill="rgba(32,224,128,.2)" stroke="#20e080" stroke-width=".5"/>
  <circle cx="32" cy="34" r="1.5" fill="rgba(32,224,128,.6)"/>
  <!-- Stem dots + line -->
  <circle cx="14" cy="6" r="2" fill="rgba(32,224,128,.7)"/>
  <circle cx="14" cy="42" r="2" fill="rgba(32,224,128,.7)"/>
  <path d="M14,8 L14,40" stroke="#20e080" stroke-width="1" fill="none"/>
</symbol>

<!-- C — open arc (crescent ring) -->
<symbol id="cc-C" viewBox="0 0 48 48">
  <circle cx="28" cy="24" r="17" fill="rgba(32,224,128,.04)" stroke="#20e080" stroke-width="1"/>
  <circle cx="28" cy="24" r="13" fill="none" stroke="#20e080" stroke-width=".6"/>
  <circle cx="28" cy="24" r="9" fill="rgba(32,224,128,.06)" stroke="#20e080" stroke-width=".8"/>
  <circle cx="28" cy="24" r="5" fill="rgba(32,224,128,.12)" stroke="#20e080" stroke-width=".6"/>
  <circle cx="28" cy="24" r="2" fill="rgba(32,224,128,.5)"/>
  <!-- Opening gaps -->
  <circle cx="42" cy="24" r="2" fill="rgba(32,224,128,.6)"/>
  <path d="M35,10 A13,13 0 1,1 35,38" fill="none" stroke="#20e080" stroke-width="1.2"/>
  <circle cx="28" cy="7" r="1.5" fill="rgba(32,224,128,.4)"/>
  <circle cx="28" cy="41" r="1.5" fill="rgba(32,224,128,.4)"/>
</symbol>

<!-- D — vertical with right dome -->
<symbol id="cc-D" viewBox="0 0 48 48">
  <circle cx="14" cy="24" r="16" fill="rgba(32,224,128,.04)" stroke="#20e080" stroke-width=".6"/>
  <circle cx="14" cy="24" r="8" fill="none" stroke="#20e080" stroke-width=".4"/>
  <circle cx="14" cy="24" r="3" fill="rgba(32,224,128,.3)"/>
  <!-- Dome -->
  <circle cx="32" cy="24" r="16" fill="rgba(32,224,128,.06)" stroke="#20e080" stroke-width=".7"/>
  <circle cx="32" cy="24" r="10" fill="rgba(32,224,128,.1)" stroke="#20e080" stroke-width=".5"/>
  <circle cx="32" cy="24" r="4" fill="rgba(32,224,128,.25)"/>
  <circle cx="32" cy="24" r="1.5" fill="rgba(32,224,128,.6)"/>
  <!-- Stem dots -->
  <circle cx="14" cy="8" r="2.5" fill="rgba(32,224,128,.7)"/>
  <circle cx="14" cy="40" r="2.5" fill="rgba(32,224,128,.7)"/>
  <path d="M14,10 L14,38" stroke="#20e080" stroke-width="1" fill="none"/>
</symbol>

<!-- E — stem with three horizontal arms -->
<symbol id="cc-E" viewBox="0 0 48 48">
  <circle cx="14" cy="24" r="10" fill="rgba(32,224,128,.04)" stroke="#20e080" stroke-width=".5"/>
  <circle cx="14" cy="24" r="4" fill="rgba(32,224,128,.2)" stroke="#20e080" stroke-width=".6"/>
  <circle cx="14" cy="6" r="2" fill="rgba(32,224,128,.7)"/>
  <circle cx="14" cy="42" r="2" fill="rgba(32,224,128,.7)"/>
  <!-- Arm endpoints as rings -->
  <circle cx="38" cy="6" r="5" fill="none" stroke="#20e080" stroke-width=".5"/>
  <circle cx="38" cy="6" r="2" fill="rgba(32,224,128,.5)"/>
  <circle cx="34" cy="24" r="4" fill="none" stroke="#20e080" stroke-width=".4"/>
  <circle cx="34" cy="24" r="1.5" fill="rgba(32,224,128,.4)"/>
  <circle cx="38" cy="42" r="5" fill="none" stroke="#20e080" stroke-width=".5"/>
  <circle cx="38" cy="42" r="2" fill="rgba(32,224,128,.5)"/>
  <!-- Arms -->
  <path d="M14,6 L38,6" stroke="#20e080" stroke-width=".9" fill="none"/>
  <path d="M14,24 L34,24" stroke="#20e080" stroke-width=".9" fill="none"/>
  <path d="M14,42 L38,42" stroke="#20e080" stroke-width=".9" fill="none"/>
  <path d="M14,6 L14,42" stroke="#20e080" stroke-width=".9" fill="none"/>
</symbol>

<!-- F — stem with two arms (no bottom) -->
<symbol id="cc-F" viewBox="0 0 48 48">
  <circle cx="14" cy="20" r="10" fill="rgba(32,224,128,.05)" stroke="#20e080" stroke-width=".5"/>
  <circle cx="14" cy="20" r="4" fill="rgba(32,224,128,.2)" stroke="#20e080" stroke-width=".6"/>
  <circle cx="14" cy="6" r="2" fill="rgba(32,224,128,.7)"/>
  <!-- Arms -->
  <path d="M14,6 L38,6" stroke="#20e080" stroke-width=".9" fill="none"/>
  <path d="M14,20 L34,20" stroke="#20e080" stroke-width=".9" fill="none"/>
  <path d="M14,6 L14,42" stroke="#20e080" stroke-width=".9" fill="none"/>
  <!-- Arm endpoints -->
  <circle cx="38" cy="6" r="5" fill="none" stroke="#20e080" stroke-width=".5"/>
  <circle cx="38" cy="6" r="2" fill="rgba(32,224,128,.5)"/>
  <circle cx="34" cy="20" r="4" fill="none" stroke="#20e080" stroke-width=".4"/>
  <circle cx="34" cy="20" r="1.5" fill="rgba(32,224,128,.4)"/>
  <!-- Bottom blob -->
  <circle cx="14" cy="40" r="3" fill="rgba(32,224,128,.3)"/>
</symbol>

<!-- G — C with crossbar -->
<symbol id="cc-G" viewBox="0 0 48 48">
  <circle cx="28" cy="22" r="16" fill="rgba(32,224,128,.04)" stroke="#20e080" stroke-width=".8"/>
  <circle cx="28" cy="22" r="11" fill="none" stroke="#20e080" stroke-width=".5"/>
  <circle cx="28" cy="22" r="6" fill="rgba(32,224,128,.08)" stroke="#20e080" stroke-width=".7"/>
  <circle cx="28" cy="22" r="2.5" fill="rgba(32,224,128,.4)"/>
  <circle cx="44" cy="22" r="2" fill="rgba(32,224,128,.6)"/>
  <!-- Arc opening right -->
  <path d="M38,12 A10,10 0 1,1 38,32" fill="none" stroke="#20e080" stroke-width="1"/>
  <circle cx="28" cy="6" r="1.5" fill="rgba(32,224,128,.3)"/>
  <circle cx="28" cy="38" r="1.5" fill="rgba(32,224,128,.3)"/>
  <!-- Crossbar -->
  <path d="M28,28 L42,28" stroke="#20e080" stroke-width=".9" fill="none"/>
  <path d="M35,28 L35,42" stroke="#20e080" stroke-width=".9" fill="none"/>
  <circle cx="42" cy="28" r="3" fill="rgba(32,224,128,.4)"/>
  <circle cx="35" cy="42" r="3" fill="rgba(32,224,128,.4)"/>
  <circle cx="42" cy="28" r="5" fill="none" stroke="#20e080" stroke-width=".4"/>
  <circle cx="35" cy="42" r="5" fill="none" stroke="#20e080" stroke-width=".4"/>
</symbol>

<!-- H — two verticals + crossbar -->
<symbol id="cc-H" viewBox="0 0 48 48">
  <circle cx="10" cy="24" r="12" fill="rgba(32,224,128,.04)" stroke="#20e080" stroke-width=".5"/>
  <circle cx="10" cy="24" r="5" fill="rgba(32,224,128,.2)" stroke="#20e080" stroke-width=".6"/>
  <circle cx="10" cy="6" r="2.5" fill="rgba(32,224,128,.7)"/>
  <circle cx="10" cy="42" r="2.5" fill="rgba(32,224,128,.7)"/>
  <circle cx="38" cy="24" r="12" fill="rgba(32,224,128,.04)" stroke="#20e080" stroke-width=".5"/>
  <circle cx="38" cy="24" r="5" fill="rgba(32,224,128,.2)" stroke="#20e080" stroke-width=".6"/>
  <circle cx="38" cy="6" r="2.5" fill="rgba(32,224,128,.7)"/>
  <circle cx="38" cy="42" r="2.5" fill="rgba(32,224,128,.7)"/>
  <!-- Crossbar -->
  <path d="M10,24 L38,24" stroke="#20e080" stroke-width="1" fill="none"/>
  <circle cx="24" cy="24" r="2" fill="rgba(32,224,128,.5)"/>
  <circle cx="24" cy="24" r="5" fill="none" stroke="#20e080" stroke-width=".4"/>
  <!-- Stems -->
  <path d="M10,6 L10,42" stroke="#20e080" stroke-width=".9" fill="none"/>
  <path d="M38,6 L38,42" stroke="#20e080" stroke-width=".9" fill="none"/>
</symbol>

<!-- I — single stem with caps -->
<symbol id="cc-I" viewBox="0 0 48 48">
  <circle cx="24" cy="24" r="14" fill="rgba(32,224,128,.04)" stroke="#20e080" stroke-width=".5"/>
  <circle cx="24" cy="24" r="8" fill="none" stroke="#20e080" stroke-width=".4"/>
  <circle cx="24" cy="24" r="3" fill="rgba(32,224,128,.25)" stroke="#20e080" stroke-width=".6"/>
  <circle cx="24" cy="8" r="5" fill="rgba(32,224,128,.15)" stroke="#20e080" stroke-width=".7"/>
  <circle cx="24" cy="8" r="2" fill="rgba(32,224,128,.6)"/>
  <circle cx="24" cy="8" r="8" fill="none" stroke="#20e080" stroke-width=".3"/>
  <circle cx="24" cy="40" r="5" fill="rgba(32,224,128,.15)" stroke="#20e080" stroke-width=".7"/>
  <circle cx="24" cy="40" r="2" fill="rgba(32,224,128,.6)"/>
  <circle cx="24" cy="40" r="8" fill="none" stroke="#20e080" stroke-width=".3"/>
  <path d="M24,13 L24,35" stroke="#20e080" stroke-width="1" fill="none"/>
</symbol>

<!-- J — stem with hook -->
<symbol id="cc-J" viewBox="0 0 48 48">
  <circle cx="30" cy="12" r="6" fill="rgba(32,224,128,.1)" stroke="#20e080" stroke-width=".7"/>
  <circle cx="30" cy="12" r="2.5" fill="rgba(32,224,128,.5)"/>
  <circle cx="30" cy="12" r="10" fill="none" stroke="#20e080" stroke-width=".3"/>
  <circle cx="30" cy="26" r="12" fill="rgba(32,224,128,.04)" stroke="#20e080" stroke-width=".5"/>
  <circle cx="30" cy="26" r="5" fill="none" stroke="#20e080" stroke-width=".4"/>
  <path d="M30,18 L30,32 A9,9 0 0,1 21,40 A6,6 0 0,1 14,38" fill="none" stroke="#20e080" stroke-width="1"/>
  <circle cx="14" cy="38" r="3" fill="rgba(32,224,128,.5)"/>
  <circle cx="14" cy="38" r="6" fill="none" stroke="#20e080" stroke-width=".4"/>
  <circle cx="21" cy="40" r="2" fill="rgba(32,224,128,.4)"/>
  <circle cx="30" cy="12" r="2" fill="rgba(32,224,128,.6)"/>
</symbol>

<!-- K — stem with two diagonal arms -->
<symbol id="cc-K" viewBox="0 0 48 48">
  <circle cx="12" cy="24" r="10" fill="rgba(32,224,128,.05)" stroke="#20e080" stroke-width=".5"/>
  <circle cx="12" cy="24" r="4" fill="rgba(32,224,128,.25)" stroke="#20e080" stroke-width=".6"/>
  <circle cx="12" cy="6" r="2.5" fill="rgba(32,224,128,.7)"/>
  <circle cx="12" cy="42" r="2.5" fill="rgba(32,224,128,.7)"/>
  <!-- Upper arm -->
  <path d="M16,18 L38,6" stroke="#20e080" stroke-width="1" fill="none"/>
  <circle cx="38" cy="6" r="4" fill="rgba(32,224,128,.2)" stroke="#20e080" stroke-width=".5"/>
  <circle cx="38" cy="6" r="7" fill="none" stroke="#20e080" stroke-width=".3"/>
  <!-- Lower arm -->
  <path d="M16,30 L38,42" stroke="#20e080" stroke-width="1" fill="none"/>
  <circle cx="38" cy="42" r="4" fill="rgba(32,224,128,.2)" stroke="#20e080" stroke-width=".5"/>
  <circle cx="38" cy="42" r="7" fill="none" stroke="#20e080" stroke-width=".3"/>
  <!-- Joint dot -->
  <circle cx="16" cy="24" r="2" fill="rgba(32,224,128,.5)"/>
  <path d="M12,6 L12,42" stroke="#20e080" stroke-width=".9" fill="none"/>
</symbol>

<!-- L — stem with footer -->
<symbol id="cc-L" viewBox="0 0 48 48">
  <circle cx="16" cy="22" r="10" fill="rgba(32,224,128,.05)" stroke="#20e080" stroke-width=".5"/>
  <circle cx="16" cy="22" r="4" fill="rgba(32,224,128,.2)" stroke="#20e080" stroke-width=".6"/>
  <circle cx="16" cy="6" r="2.5" fill="rgba(32,224,128,.7)"/>
  <circle cx="16" cy="42" r="2.5" fill="rgba(32,224,128,.7)"/>
  <path d="M16,8 L16,42" stroke="#20e080" stroke-width=".9" fill="none"/>
  <path d="M16,42 L40,42" stroke="#20e080" stroke-width="1" fill="none"/>
  <circle cx="40" cy="42" r="3" fill="rgba(32,224,128,.4)"/>
  <circle cx="40" cy="42" r="6" fill="none" stroke="#20e080" stroke-width=".4"/>
  <circle cx="28" cy="42" r="3" fill="rgba(32,224,128,.2)"/>
</symbol>

<!-- M — two legs with peak -->
<symbol id="cc-M" viewBox="0 0 48 48">
  <circle cx="8" cy="24" r="12" fill="rgba(32,224,128,.04)" stroke="#20e080" stroke-width=".5"/>
  <circle cx="8" cy="24" r="5" fill="rgba(32,224,128,.2)" stroke="#20e080" stroke-width=".6"/>
  <circle cx="8" cy="42" r="2.5" fill="rgba(32,224,128,.7)"/>
  <circle cx="40" cy="24" r="12" fill="rgba(32,224,128,.04)" stroke="#20e080" stroke-width=".5"/>
  <circle cx="40" cy="24" r="5" fill="rgba(32,224,128,.2)" stroke="#20e080" stroke-width=".6"/>
  <circle cx="40" cy="42" r="2.5" fill="rgba(32,224,128,.7)"/>
  <!-- V-shape legs -->
  <path d="M8,42 L8,14 L24,26 L40,14 L40,42" fill="none" stroke="#20e080" stroke-width="1"/>
  <!-- Peak -->
  <circle cx="24" cy="8" r="5" fill="rgba(32,224,128,.15)" stroke="#20e080" stroke-width=".7"/>
  <circle cx="24" cy="8" r="2" fill="rgba(32,224,128,.5)"/>
  <circle cx="24" cy="8" r="9" fill="none" stroke="#20e080" stroke-width=".3"/>
</symbol>

<!-- N — two verticals + diagonal -->
<symbol id="cc-N" viewBox="0 0 48 48">
  <circle cx="10" cy="24" r="12" fill="rgba(32,224,128,.04)" stroke="#20e080" stroke-width=".5"/>
  <circle cx="10" cy="24" r="5" fill="rgba(32,224,128,.2)" stroke="#20e080" stroke-width=".6"/>
  <circle cx="10" cy="6" r="2.5" fill="rgba(32,224,128,.7)"/>
  <circle cx="10" cy="42" r="2.5" fill="rgba(32,224,128,.7)"/>
  <circle cx="38" cy="24" r="12" fill="rgba(32,224,128,.04)" stroke="#20e080" stroke-width=".5"/>
  <circle cx="38" cy="24" r="5" fill="rgba(32,224,128,.2)" stroke="#20e080" stroke-width=".6"/>
  <circle cx="38" cy="6" r="2.5" fill="rgba(32,224,128,.7)"/>
  <circle cx="38" cy="42" r="2.5" fill="rgba(32,224,128,.7)"/>
  <path d="M10,42 L38,6" stroke="#20e080" stroke-width="1" fill="none"/>
  <path d="M10,6 L10,42" stroke="#20e080" stroke-width=".9" fill="none"/>
  <path d="M38,6 L38,42" stroke="#20e080" stroke-width=".9" fill="none"/>
  <circle cx="24" cy="24" r="2" fill="rgba(32,224,128,.4)"/>
</symbol>

<!-- O — classic concentric ring crop circle -->
<symbol id="cc-O" viewBox="0 0 48 48">
  <circle cx="24" cy="24" r="18" fill="rgba(32,224,128,.04)" stroke="#20e080" stroke-width="1.2"/>
  <circle cx="24" cy="24" r="14" fill="none" stroke="#20e080" stroke-width=".8"/>
  <circle cx="24" cy="24" r="10" fill="rgba(32,224,128,.06)" stroke="#20e080" stroke-width="1"/>
  <circle cx="24" cy="24" r="6" fill="rgba(32,224,128,.1)" stroke="#20e080" stroke-width=".8"/>
  <circle cx="24" cy="24" r="3" fill="rgba(32,224,128,.25)" stroke="#20e080" stroke-width=".5"/>
  <circle cx="24" cy="24" r="1.2" fill="#20e080"/>
  <!-- Cardinal dots -->
  <circle cx="24" cy="6" r="1.5" fill="rgba(32,224,128,.5)"/>
  <circle cx="24" cy="42" r="1.5" fill="rgba(32,224,128,.5)"/>
  <circle cx="6" cy="24" r="1.5" fill="rgba(32,224,128,.5)"/>
  <circle cx="42" cy="24" r="1.5" fill="rgba(32,224,128,.5)"/>
</symbol>

<!-- P — stem with top lobe -->
<symbol id="cc-P" viewBox="0 0 48 48">
  <circle cx="14" cy="18" r="14" fill="rgba(32,224,128,.05)" stroke="#20e080" stroke-width=".6"/>
  <circle cx="14" cy="18" r="7" fill="none" stroke="#20e080" stroke-width=".5"/>
  <circle cx="14" cy="18" r="3" fill="rgba(32,224,128,.25)" stroke="#20e080" stroke-width=".7"/>
  <circle cx="14" cy="8" r="2.5" fill="rgba(32,224,128,.7)"/>
  <circle cx="14" cy="42" r="2.5" fill="rgba(32,224,128,.7)"/>
  <!-- Lobe -->
  <circle cx="30" cy="15" r="8" fill="rgba(32,224,128,.08)" stroke="#20e080" stroke-width=".7"/>
  <circle cx="30" cy="15" r="3.5" fill="rgba(32,224,128,.25)" stroke="#20e080" stroke-width=".5"/>
  <circle cx="30" cy="15" r="1.2" fill="rgba(32,224,128,.6)"/>
  <!-- Outermost ring around lobe -->
  <circle cx="30" cy="15" r="12" fill="none" stroke="#20e080" stroke-width=".3"/>
  <path d="M14,8 L14,42" stroke="#20e080" stroke-width=".9" fill="none"/>
</symbol>

<!-- Q — ring with tail -->
<symbol id="cc-Q" viewBox="0 0 48 48">
  <circle cx="24" cy="22" r="17" fill="rgba(32,224,128,.04)" stroke="#20e080" stroke-width="1"/>
  <circle cx="24" cy="22" r="12" fill="none" stroke="#20e080" stroke-width=".7"/>
  <circle cx="24" cy="22" r="8" fill="rgba(32,224,128,.08)" stroke="#20e080" stroke-width=".8"/>
  <circle cx="24" cy="22" r="4" fill="rgba(32,224,128,.2)" stroke="#20e080" stroke-width=".5"/>
  <circle cx="24" cy="22" r="1.5" fill="#20e080"/>
  <!-- Tail -->
  <path d="M34,34 L42,44" stroke="#20e080" stroke-width="1.2" fill="none"/>
  <circle cx="42" cy="44" r="3" fill="rgba(32,224,128,.5)"/>
  <circle cx="42" cy="44" r="6" fill="none" stroke="#20e080" stroke-width=".4"/>
  <circle cx="34" cy="34" r="2" fill="rgba(32,224,128,.4)"/>
</symbol>

<!-- R — P with leg -->
<symbol id="cc-R" viewBox="0 0 48 48">
  <circle cx="14" cy="18" r="13" fill="rgba(32,224,128,.05)" stroke="#20e080" stroke-width=".6"/>
  <circle cx="14" cy="18" r="6" fill="none" stroke="#20e080" stroke-width=".5"/>
  <circle cx="14" cy="18" r="2.5" fill="rgba(32,224,128,.3)" stroke="#20e080" stroke-width=".7"/>
  <circle cx="14" cy="8" r="2.5" fill="rgba(32,224,128,.7)"/>
  <circle cx="14" cy="42" r="2.5" fill="rgba(32,224,128,.7)"/>
  <!-- Lobe -->
  <circle cx="30" cy="15" r="7" fill="rgba(32,224,128,.08)" stroke="#20e080" stroke-width=".6"/>
  <circle cx="30" cy="15" r="3" fill="rgba(32,224,128,.25)" stroke="#20e080" stroke-width=".5"/>
  <!-- Leg -->
  <path d="M22,28 L36,42" stroke="#20e080" stroke-width="1" fill="none"/>
  <circle cx="36" cy="42" r="3" fill="rgba(32,224,128,.4)"/>
  <circle cx="36" cy="42" r="6" fill="none" stroke="#20e080" stroke-width=".4"/>
  <path d="M14,8 L14,42" stroke="#20e080" stroke-width=".9" fill="none"/>
</symbol>

<!-- S — two interlocking arcs -->
<symbol id="cc-S" viewBox="0 0 48 48">
  <!-- Top arc carrier -->
  <circle cx="20" cy="14" r="11" fill="rgba(32,224,128,.05)" stroke="#20e080" stroke-width=".5"/>
  <circle cx="20" cy="14" r="5" fill="none" stroke="#20e080" stroke-width=".7"/>
  <circle cx="20" cy="14" r="2" fill="rgba(32,224,128,.4)"/>
  <!-- Bottom arc carrier -->
  <circle cx="28" cy="34" r="11" fill="rgba(32,224,128,.05)" stroke="#20e080" stroke-width=".5"/>
  <circle cx="28" cy="34" r="5" fill="none" stroke="#20e080" stroke-width=".7"/>
  <circle cx="28" cy="34" r="2" fill="rgba(32,224,128,.4)"/>
  <!-- Connecting path -->
  <path d="M8,14 A8,8 0 0,0 18,20 Q24,24 28,28 A8,8 0 0,0 40,34" fill="none" stroke="#20e080" stroke-width="1.1"/>
  <!-- Endpoint dots -->
  <circle cx="8" cy="14" r="2" fill="rgba(32,224,128,.6)"/>
  <circle cx="40" cy="34" r="2.5" fill="rgba(32,224,128,.6)"/>
  <circle cx="8" cy="14" r="4" fill="none" stroke="#20e080" stroke-width=".4"/>
  <circle cx="40" cy="34" r="4" fill="none" stroke="#20e080" stroke-width=".4"/>
  <!-- Mid dot -->
  <circle cx="24" cy="24" r="3" fill="rgba(32,224,128,.2)"/>
</symbol>

<!-- T — cross with stem -->
<symbol id="cc-T" viewBox="0 0 48 48">
  <circle cx="24" cy="10" r="8" fill="rgba(32,224,128,.06)" stroke="#20e080" stroke-width=".7"/>
  <circle cx="24" cy="10" r="3.5" fill="rgba(32,224,128,.25)" stroke="#20e080" stroke-width=".7"/>
  <circle cx="24" cy="10" r="1.5" fill="rgba(32,224,128,.6)"/>
  <circle cx="24" cy="10" r="12" fill="none" stroke="#20e080" stroke-width=".3"/>
  <circle cx="24" cy="10" r="1.5" fill="rgba(32,224,128,.7)"/>
  <!-- Crossbar line -->
  <path d="M6,10 L42,10" stroke="#20e080" stroke-width="1" fill="none"/>
  <!-- End dots -->
  <circle cx="6" cy="10" r="2" fill="rgba(32,224,128,.5)"/>
  <circle cx="42" cy="10" r="2" fill="rgba(32,224,128,.5)"/>
  <!-- Stem -->
  <path d="M24,18 L24,42" stroke="#20e080" stroke-width="1.1" fill="none"/>
  <circle cx="24" cy="42" r="3" fill="rgba(32,224,128,.4)"/>
  <circle cx="24" cy="42" r="6" fill="none" stroke="#20e080" stroke-width=".4"/>
</symbol>

<!-- U — two verticals joined at curve -->
<symbol id="cc-U" viewBox="0 0 48 48">
  <circle cx="10" cy="20" r="10" fill="rgba(32,224,128,.04)" stroke="#20e080" stroke-width=".5"/>
  <circle cx="10" cy="20" r="4" fill="rgba(32,224,128,.2)" stroke="#20e080" stroke-width=".6"/>
  <circle cx="10" cy="6" r="2.5" fill="rgba(32,224,128,.7)"/>
  <circle cx="38" cy="20" r="10" fill="rgba(32,224,128,.04)" stroke="#20e080" stroke-width=".5"/>
  <circle cx="38" cy="20" r="4" fill="rgba(32,224,128,.2)" stroke="#20e080" stroke-width=".6"/>
  <circle cx="38" cy="6" r="2.5" fill="rgba(32,224,128,.7)"/>
  <!-- U-shape path -->
  <path d="M10,6 L10,28 A14,14 0 0,0 38,28 L38,6" fill="none" stroke="#20e080" stroke-width="1"/>
  <!-- Bottom curve dot -->
  <circle cx="24" cy="40" r="2.5" fill="rgba(32,224,128,.4)"/>
  <circle cx="24" cy="40" r="5.5" fill="none" stroke="#20e080" stroke-width=".4"/>
</symbol>

<!-- V — two lines meeting at point -->
<symbol id="cc-V" viewBox="0 0 48 48">
  <circle cx="8" cy="8" r="3" fill="rgba(32,224,128,.4)" stroke="#20e080" stroke-width=".7"/>
  <circle cx="8" cy="8" r="6" fill="none" stroke="#20e080" stroke-width=".4"/>
  <circle cx="40" cy="8" r="3" fill="rgba(32,224,128,.4)" stroke="#20e080" stroke-width=".7"/>
  <circle cx="40" cy="8" r="6" fill="none" stroke="#20e080" stroke-width=".4"/>
  <circle cx="24" cy="42" r="3" fill="rgba(32,224,128,.4)" stroke="#20e080" stroke-width=".7"/>
  <circle cx="24" cy="42" r="6" fill="none" stroke="#20e080" stroke-width=".4"/>
  <!-- Lines -->
  <path d="M8,8 L24,42 L40,8" fill="none" stroke="#20e080" stroke-width="1"/>
  <!-- Inner ring -->
  <circle cx="24" cy="22" r="8" fill="rgba(32,224,128,.04)" stroke="#20e080" stroke-width=".4"/>
</symbol>

<!-- W — double V -->
<symbol id="cc-W" viewBox="0 0 48 48">
  <circle cx="6" cy="6" r="3" fill="rgba(32,224,128,.4)" stroke="#20e080" stroke-width=".6"/>
  <circle cx="6" cy="6" r="5" fill="none" stroke="#20e080" stroke-width=".3"/>
  <circle cx="42" cy="6" r="3" fill="rgba(32,224,128,.4)" stroke="#20e080" stroke-width=".6"/>
  <circle cx="42" cy="6" r="5" fill="none" stroke="#20e080" stroke-width=".3"/>
  <circle cx="15" cy="42" r="2.5" fill="rgba(32,224,128,.4)" stroke="#20e080" stroke-width=".6"/>
  <circle cx="33" cy="42" r="2.5" fill="rgba(32,224,128,.4)" stroke="#20e080" stroke-width=".6"/>
  <circle cx="24" cy="24" r="2" fill="rgba(32,224,128,.3)"/>
  <!-- Triple vertex path -->
  <path d="M6,6 L15,42 L24,22 L33,42 L42,6" fill="none" stroke="#20e080" stroke-width="1"/>
  <!-- Inner rings -->
  <circle cx="15" cy="22" r="5" fill="rgba(32,224,128,.04)" stroke="#20e080" stroke-width=".4"/>
  <circle cx="33" cy="22" r="5" fill="rgba(32,224,128,.04)" stroke="#20e080" stroke-width=".4"/>
</symbol>

<!-- X — two crossing diagonals -->
<symbol id="cc-X" viewBox="0 0 48 48">
  <!-- Four corner dots/rings -->
  <circle cx="8" cy="8" r="4" fill="rgba(32,224,128,.3)" stroke="#20e080" stroke-width=".6"/>
  <circle cx="8" cy="8" r="7" fill="none" stroke="#20e080" stroke-width=".3"/>
  <circle cx="40" cy="8" r="4" fill="rgba(32,224,128,.3)" stroke="#20e080" stroke-width=".6"/>
  <circle cx="40" cy="8" r="7" fill="none" stroke="#20e080" stroke-width=".3"/>
  <circle cx="8" cy="40" r="4" fill="rgba(32,224,128,.3)" stroke="#20e080" stroke-width=".6"/>
  <circle cx="8" cy="40" r="7" fill="none" stroke="#20e080" stroke-width=".3"/>
  <circle cx="40" cy="40" r="4" fill="rgba(32,224,128,.3)" stroke="#20e080" stroke-width=".6"/>
  <circle cx="40" cy="40" r="7" fill="none" stroke="#20e080" stroke-width=".3"/>
  <!-- Diagonals -->
  <path d="M8,8 L40,40" stroke="#20e080" stroke-width="1" fill="none"/>
  <path d="M40,8 L8,40" stroke="#20e080" stroke-width="1" fill="none"/>
  <!-- Center ring -->
  <circle cx="24" cy="24" r="4" fill="rgba(32,224,128,.15)" stroke="#20e080" stroke-width=".7"/>
  <circle cx="24" cy="24" r="1.5" fill="#20e080"/>
  <circle cx="24" cy="24" r="7" fill="none" stroke="#20e080" stroke-width=".3"/>
  <!-- Outer ring -->
  <circle cx="24" cy="24" r="18" fill="none" stroke="#20e080" stroke-width=".3"/>
</symbol>

<!-- Y — two arms meeting then single stem -->
<symbol id="cc-Y" viewBox="0 0 48 48">
  <circle cx="8" cy="6" r="3" fill="rgba(32,224,128,.4)" stroke="#20e080" stroke-width=".6"/>
  <circle cx="8" cy="6" r="6" fill="none" stroke="#20e080" stroke-width=".3"/>
  <circle cx="40" cy="6" r="3" fill="rgba(32,224,128,.4)" stroke="#20e080" stroke-width=".6"/>
  <circle cx="40" cy="6" r="6" fill="none" stroke="#20e080" stroke-width=".3"/>
  <circle cx="24" cy="42" r="3" fill="rgba(32,224,128,.4)" stroke="#20e080" stroke-width=".6"/>
  <circle cx="24" cy="42" r="7" fill="none" stroke="#20e080" stroke-width=".4"/>
  <!-- Upper V -->
  <path d="M8,6 L24,22" stroke="#20e080" stroke-width="1" fill="none"/>
  <path d="M40,6 L24,22" stroke="#20e080" stroke-width="1" fill="none"/>
  <!-- Stem -->
  <path d="M24,22 L24,42" stroke="#20e080" stroke-width="1" fill="none"/>
  <!-- Junction ring -->
  <circle cx="24" cy="22" r="3" fill="rgba(32,224,128,.2)" stroke="#20e080" stroke-width=".5"/>
  <circle cx="24" cy="22" r="6" fill="none" stroke="#20e080" stroke-width=".3"/>
</symbol>

<!-- Z — zigzag with horizontals -->
<symbol id="cc-Z" viewBox="0 0 48 48">
  <!-- Corner dots/rings -->
  <circle cx="6" cy="8" r="3" fill="rgba(32,224,128,.4)" stroke="#20e080" stroke-width=".6"/>
  <circle cx="6" cy="8" r="5" fill="none" stroke="#20e080" stroke-width=".3"/>
  <circle cx="42" cy="8" r="3" fill="rgba(32,224,128,.4)" stroke="#20e080" stroke-width=".6"/>
  <circle cx="42" cy="8" r="5" fill="none" stroke="#20e080" stroke-width=".3"/>
  <circle cx="6" cy="40" r="3" fill="rgba(32,224,128,.4)" stroke="#20e080" stroke-width=".6"/>
  <circle cx="6" cy="40" r="5" fill="none" stroke="#20e080" stroke-width=".3"/>
  <circle cx="42" cy="40" r="3" fill="rgba(32,224,128,.4)" stroke="#20e080" stroke-width=".6"/>
  <circle cx="42" cy="40" r="5" fill="none" stroke="#20e080" stroke-width=".3"/>
  <!-- Z path -->
  <path d="M6,8 L42,8 L6,40 L42,40" fill="none" stroke="#20e080" stroke-width="1"/>
  <!-- Midpoint markers -->
  <circle cx="24" cy="24" r="2" fill="rgba(32,224,128,.3)"/>
  <!-- Outer ring -->
  <circle cx="24" cy="24" r="19" fill="none" stroke="#20e080" stroke-width=".3"/>
</symbol>

</defs>
</svg>
